<?xml version="1.0" encoding="UTF-8"?>
<!DOCTYPE svg PUBLIC "-//W3C//DTD SVG 1.1//EN" "http://www.w3.org/Graphics/SVG/1.1/DTD/svg11.dtd">
<svg xmlns="http://www.w3.org/2000/svg" version="1.1" width="512px" height="512px" style="shape-rendering:geometricPrecision; text-rendering:geometricPrecision; image-rendering:optimizeQuality; fill-rule:evenodd; clip-rule:evenodd" xmlns:xlink="http://www.w3.org/1999/xlink">
<g><path style="opacity:0.974" fill="#000000" d="M 141.5,105.5 C 220.191,105.023 298.858,105.523 377.5,107C 416.226,115.726 439.393,139.56 447,178.5C 447.667,229.833 447.667,281.167 447,332.5C 438.256,374.91 412.423,399.076 369.5,405C 349.5,405.333 329.5,405.667 309.5,406C 318.333,414.833 327.167,423.667 336,432.5C 344.365,445.085 342.865,456.252 331.5,466C 322.082,471.031 313.082,470.365 304.5,464C 282.667,442.167 260.833,420.333 239,398.5C 231.667,388.5 231.667,378.5 239,368.5C 260.833,346.667 282.667,324.833 304.5,303C 314.5,295.667 324.5,295.667 334.5,303C 343.608,313.698 343.775,324.531 335,335.5C 326.5,344 318,352.5 309.5,361C 329.5,361.667 349.5,361.667 369.5,361C 388.8,356.251 400.3,344.085 404,324.5C 404.667,278.5 404.667,232.5 404,186.5C 400.3,166.915 388.8,154.749 369.5,150C 293.5,149.333 217.5,149.333 141.5,150C 122.2,154.749 110.7,166.915 107,186.5C 106.024,234.204 106.358,281.871 108,329.5C 113.296,346.233 124.463,356.733 141.5,361C 152.5,361.333 163.5,361.667 174.5,362C 188.355,366.531 193.855,376.031 191,390.5C 187.977,398.192 182.477,403.025 174.5,405C 159.077,406.068 143.744,405.402 128.5,403C 92.3692,392.87 70.8692,369.37 64,332.5C 63.3333,281.167 63.3333,229.833 64,178.5C 72.9176,136.079 98.7509,111.746 141.5,105.5 Z"/></g>
</svg>
